<mxfile host="app.diagrams.net" agent="Mozilla/5.0 (Windows NT 10.0; Win64; x64) AppleWebKit/537.36 (KHTML, like Gecko) Chrome/138.0.0.0 Safari/537.36" version="28.0.4">
  <diagram name="Page-1" id="LgF2EEBKUEtaE752DzGD">
    <mxGraphModel dx="1805" dy="1103" grid="1" gridSize="10" guides="1" tooltips="1" connect="1" arrows="1" fold="1" page="1" pageScale="1" pageWidth="1400" pageHeight="850" math="0" shadow="0">
      <root>
        <mxCell id="0" />
        <mxCell id="1" parent="0" />
        <mxCell id="iPQbSwLAwt5U1WuinnP0-1" value="&lt;font style=&quot;font-size: 48px;&quot;&gt;Pait Clan&lt;/font&gt;" style="text;html=1;align=center;verticalAlign=middle;whiteSpace=wrap;rounded=0;" parent="1" vertex="1">
          <mxGeometry x="540" y="-470" width="410" height="30" as="geometry" />
        </mxCell>
        <mxCell id="iPQbSwLAwt5U1WuinnP0-3" value="&lt;span style=&quot;font-size: 20px;&quot;&gt;Mariano&lt;/span&gt;&lt;span style=&quot;font-size: 16.6667px;&quot;&gt;&lt;sup&gt;+&lt;/sup&gt;&lt;/span&gt;&lt;br&gt;&lt;span style=&quot;background-color: transparent; color: light-dark(rgb(0, 0, 0), rgb(255, 255, 255)); font-size: 20px;&quot;&gt;&amp;amp;&amp;nbsp;&lt;/span&gt;&lt;div&gt;&lt;span style=&quot;font-size: 20px; background-color: transparent; color: light-dark(rgb(0, 0, 0), rgb(255, 255, 255));&quot;&gt;Isabel&lt;sup&gt;+&lt;/sup&gt;&lt;/span&gt;&lt;/div&gt;" style="ellipse;whiteSpace=wrap;html=1;" parent="1" vertex="1">
          <mxGeometry x="630" y="385" width="140" height="80" as="geometry" />
        </mxCell>
        <mxCell id="iPQbSwLAwt5U1WuinnP0-13" value="" style="endArrow=none;html=1;rounded=0;" parent="1" edge="1">
          <mxGeometry width="50" height="50" relative="1" as="geometry">
            <mxPoint x="620" y="400" as="sourcePoint" />
            <mxPoint x="620" y="540" as="targetPoint" />
          </mxGeometry>
        </mxCell>
        <mxCell id="iPQbSwLAwt5U1WuinnP0-14" value="" style="endArrow=classic;html=1;rounded=0;entryX=1;entryY=0.5;entryDx=0;entryDy=0;" parent="1" edge="1" target="iPQbSwLAwt5U1WuinnP0-47">
          <mxGeometry width="50" height="50" relative="1" as="geometry">
            <mxPoint x="620" y="425" as="sourcePoint" />
            <mxPoint x="600" y="424" as="targetPoint" />
          </mxGeometry>
        </mxCell>
        <mxCell id="iPQbSwLAwt5U1WuinnP0-15" value="" style="endArrow=none;html=1;rounded=0;" parent="1" edge="1">
          <mxGeometry width="50" height="50" relative="1" as="geometry">
            <mxPoint x="770" y="425" as="sourcePoint" />
            <mxPoint x="780" y="425" as="targetPoint" />
          </mxGeometry>
        </mxCell>
        <mxCell id="iPQbSwLAwt5U1WuinnP0-6" value="" style="endArrow=none;html=1;rounded=0;" parent="1" edge="1">
          <mxGeometry width="50" height="50" relative="1" as="geometry">
            <mxPoint x="620" y="425" as="sourcePoint" />
            <mxPoint x="630" y="425" as="targetPoint" />
          </mxGeometry>
        </mxCell>
        <mxCell id="iPQbSwLAwt5U1WuinnP0-16" value="" style="endArrow=none;html=1;rounded=0;" parent="1" edge="1">
          <mxGeometry width="50" height="50" relative="1" as="geometry">
            <mxPoint x="780" y="160" as="sourcePoint" />
            <mxPoint x="780" y="400" as="targetPoint" />
          </mxGeometry>
        </mxCell>
        <mxCell id="iPQbSwLAwt5U1WuinnP0-18" value="" style="endArrow=classic;html=1;rounded=0;" parent="1" edge="1">
          <mxGeometry width="50" height="50" relative="1" as="geometry">
            <mxPoint x="780" y="160.38" as="sourcePoint" />
            <mxPoint x="800" y="160.38" as="targetPoint" />
          </mxGeometry>
        </mxCell>
        <mxCell id="iPQbSwLAwt5U1WuinnP0-36" value="" style="endArrow=classic;html=1;rounded=0;" parent="1" edge="1">
          <mxGeometry width="50" height="50" relative="1" as="geometry">
            <mxPoint x="780" y="425" as="sourcePoint" />
            <mxPoint x="800" y="425" as="targetPoint" />
          </mxGeometry>
        </mxCell>
        <mxCell id="iPQbSwLAwt5U1WuinnP0-38" value="3. Felix (Lumas-e) Viva&lt;sup&gt;+&lt;/sup&gt; &amp;amp; Patricia Ligunan&lt;sup&gt;+&lt;/sup&gt;" style="rounded=1;whiteSpace=wrap;html=1;" parent="1" vertex="1">
          <mxGeometry x="815" y="405" width="135" height="40" as="geometry" />
        </mxCell>
        <mxCell id="iPQbSwLAwt5U1WuinnP0-40" value="" style="endArrow=none;html=1;rounded=0;" parent="1" edge="1">
          <mxGeometry width="50" height="50" relative="1" as="geometry">
            <mxPoint x="780" y="390" as="sourcePoint" />
            <mxPoint x="780" y="660" as="targetPoint" />
          </mxGeometry>
        </mxCell>
        <mxCell id="iPQbSwLAwt5U1WuinnP0-7" value="" style="endArrow=none;html=1;rounded=0;" parent="1" edge="1">
          <mxGeometry width="50" height="50" relative="1" as="geometry">
            <mxPoint x="620" y="400" as="sourcePoint" />
            <mxPoint x="620" y="-200" as="targetPoint" />
          </mxGeometry>
        </mxCell>
        <mxCell id="iPQbSwLAwt5U1WuinnP0-8" value="" style="endArrow=classic;html=1;rounded=0;entryX=1;entryY=0.5;entryDx=0;entryDy=0;" parent="1" edge="1" target="iPQbSwLAwt5U1WuinnP0-55">
          <mxGeometry width="50" height="50" relative="1" as="geometry">
            <mxPoint x="620" y="-200" as="sourcePoint" />
            <mxPoint x="585" y="160.59714285714284" as="targetPoint" />
          </mxGeometry>
        </mxCell>
        <mxCell id="iPQbSwLAwt5U1WuinnP0-47" value="4. Christina (Manengway) Viva+ &amp;amp; Rufino Pilay+" style="rounded=1;whiteSpace=wrap;html=1;" parent="1" vertex="1">
          <mxGeometry x="415" y="405" width="180" height="40" as="geometry" />
        </mxCell>
        <mxCell id="iPQbSwLAwt5U1WuinnP0-48" value="" style="endArrow=classic;html=1;rounded=0;" parent="1" edge="1">
          <mxGeometry width="50" height="50" relative="1" as="geometry">
            <mxPoint x="780" y="659.6700000000001" as="sourcePoint" />
            <mxPoint x="800" y="659.6700000000001" as="targetPoint" />
          </mxGeometry>
        </mxCell>
        <mxCell id="iPQbSwLAwt5U1WuinnP0-49" value="5. Fernando (Kagan) Domanog&lt;sup&gt;+&lt;/sup&gt; &amp;amp; Lucia Miguel&lt;sup&gt;+&lt;/sup&gt;" style="rounded=1;whiteSpace=wrap;html=1;" parent="1" vertex="1">
          <mxGeometry x="800" y="640" width="180" height="40" as="geometry" />
        </mxCell>
        <mxCell id="iPQbSwLAwt5U1WuinnP0-51" value="" style="endArrow=none;html=1;rounded=0;" parent="1" edge="1">
          <mxGeometry width="50" height="50" relative="1" as="geometry">
            <mxPoint x="620" y="540" as="sourcePoint" />
            <mxPoint x="620" y="660" as="targetPoint" />
          </mxGeometry>
        </mxCell>
        <mxCell id="iPQbSwLAwt5U1WuinnP0-53" value="" style="endArrow=classic;html=1;rounded=0;" parent="1" edge="1">
          <mxGeometry width="50" height="50" relative="1" as="geometry">
            <mxPoint x="620" y="659.68" as="sourcePoint" />
            <mxPoint x="600" y="659.68" as="targetPoint" />
          </mxGeometry>
        </mxCell>
        <mxCell id="iPQbSwLAwt5U1WuinnP0-54" value="6. Jose Biba&lt;sup&gt;+&lt;/sup&gt; &amp;amp; Catalina (Gin-om) Codangos" style="rounded=1;whiteSpace=wrap;html=1;" parent="1" vertex="1">
          <mxGeometry x="430" y="640" width="150" height="40" as="geometry" />
        </mxCell>
        <mxCell id="iPQbSwLAwt5U1WuinnP0-59" value="" style="edgeStyle=orthogonalEdgeStyle;rounded=0;orthogonalLoop=1;jettySize=auto;html=1;exitX=0;exitY=0.5;exitDx=0;exitDy=0;entryX=1;entryY=0.5;entryDx=0;entryDy=0;" parent="1" source="iPQbSwLAwt5U1WuinnP0-55" target="iPQbSwLAwt5U1WuinnP0-58" edge="1">
          <mxGeometry relative="1" as="geometry">
            <mxPoint x="370" y="160" as="sourcePoint" />
            <mxPoint x="350" y="160" as="targetPoint" />
            <Array as="points">
              <mxPoint x="370" y="-200" />
              <mxPoint x="370" y="-200" />
            </Array>
          </mxGeometry>
        </mxCell>
        <mxCell id="iPQbSwLAwt5U1WuinnP0-55" value="1. Domingo (Domanog) Biba&lt;sup&gt;+&lt;/sup&gt; &amp;amp; Emilia (Kuman) Bagni&lt;span style=&quot;font-size: 10px;&quot;&gt;&lt;sup&gt;+&lt;/sup&gt;&lt;/span&gt;&amp;nbsp;(First Wife)&lt;sup&gt;&amp;nbsp;&lt;/sup&gt;" style="rounded=1;whiteSpace=wrap;html=1;" parent="1" vertex="1">
          <mxGeometry x="385" y="-219.62" width="195" height="40" as="geometry" />
        </mxCell>
        <mxCell id="iPQbSwLAwt5U1WuinnP0-58" value="Godfrey (Uyaan) Biba &amp;amp; Luisa Nicanor" style="whiteSpace=wrap;html=1;rounded=1;" parent="1" vertex="1">
          <mxGeometry x="200" y="-219.62" width="120" height="40" as="geometry" />
        </mxCell>
        <mxCell id="geJAM1FH9w8emXUavwDb-1" value="" style="endArrow=classic;html=1;rounded=0;entryX=1;entryY=0.5;entryDx=0;entryDy=0;" edge="1" parent="1" target="geJAM1FH9w8emXUavwDb-3">
          <mxGeometry width="50" height="50" relative="1" as="geometry">
            <mxPoint x="620" y="259.86" as="sourcePoint" />
            <mxPoint x="580" y="259.67" as="targetPoint" />
          </mxGeometry>
        </mxCell>
        <mxCell id="geJAM1FH9w8emXUavwDb-2" value="2. Agnes (Ayagan) Beba&lt;span style=&quot;font-size: 10px;&quot;&gt;&lt;sup&gt;+&lt;/sup&gt;&lt;/span&gt;&amp;nbsp; &amp;amp; Leon Domerez&lt;sup&gt;+&lt;/sup&gt;" style="rounded=1;whiteSpace=wrap;html=1;" vertex="1" parent="1">
          <mxGeometry x="800" y="140.38" width="150" height="40" as="geometry" />
        </mxCell>
        <mxCell id="geJAM1FH9w8emXUavwDb-3" value="Domingo (Domanog) Biba&lt;sup&gt;+&lt;/sup&gt; &amp;amp; Dominga Paydon&lt;span style=&quot;font-size: 10px;&quot;&gt;&lt;sup&gt;+&lt;/sup&gt;&lt;/span&gt;&lt;span style=&quot;font-size: 10px;&quot;&gt;&lt;sup&gt;&amp;nbsp;&lt;/sup&gt;(Second Wife)&lt;/span&gt;" style="rounded=1;whiteSpace=wrap;html=1;" vertex="1" parent="1">
          <mxGeometry x="402.5" y="240" width="170" height="40" as="geometry" />
        </mxCell>
        <mxCell id="geJAM1FH9w8emXUavwDb-12" value="" style="endArrow=classic;html=1;rounded=0;entryX=0.5;entryY=0;entryDx=0;entryDy=0;exitX=0.5;exitY=1;exitDx=0;exitDy=0;" edge="1" parent="1" source="iPQbSwLAwt5U1WuinnP0-55" target="geJAM1FH9w8emXUavwDb-3">
          <mxGeometry width="50" height="50" relative="1" as="geometry">
            <mxPoint x="540" y="240.19" as="sourcePoint" />
            <mxPoint x="500" y="240" as="targetPoint" />
          </mxGeometry>
        </mxCell>
        <mxCell id="geJAM1FH9w8emXUavwDb-14" value="Viola Viva &amp;amp; Artemio Calletong" style="whiteSpace=wrap;html=1;rounded=1;" vertex="1" parent="1">
          <mxGeometry x="230" y="240" width="120" height="40" as="geometry" />
        </mxCell>
        <mxCell id="geJAM1FH9w8emXUavwDb-17" value="Generosa Viva &amp;amp; Buenaventura Centeno+" style="whiteSpace=wrap;html=1;rounded=1;" vertex="1" parent="1">
          <mxGeometry x="210" y="300" width="140" height="40" as="geometry" />
        </mxCell>
        <mxCell id="geJAM1FH9w8emXUavwDb-18" value="Margarita Viva+ &amp;amp; Anselmo Dagdag" style="whiteSpace=wrap;html=1;rounded=1;" vertex="1" parent="1">
          <mxGeometry x="210" y="360" width="140" height="40" as="geometry" />
        </mxCell>
        <mxCell id="geJAM1FH9w8emXUavwDb-19" value="Alicia Viva" style="whiteSpace=wrap;html=1;rounded=1;" vertex="1" parent="1">
          <mxGeometry x="210" y="420" width="140" height="40" as="geometry" />
        </mxCell>
        <mxCell id="geJAM1FH9w8emXUavwDb-20" value="Virginia Viva" style="whiteSpace=wrap;html=1;rounded=1;" vertex="1" parent="1">
          <mxGeometry x="210" y="480" width="140" height="40" as="geometry" />
        </mxCell>
        <mxCell id="geJAM1FH9w8emXUavwDb-21" value="Mario Viva &amp;amp; Ruby Banatao" style="whiteSpace=wrap;html=1;rounded=1;" vertex="1" parent="1">
          <mxGeometry x="250" y="540" width="100" height="40" as="geometry" />
        </mxCell>
        <mxCell id="geJAM1FH9w8emXUavwDb-22" value="John Viva &amp;amp; Lilibeth Harical" style="whiteSpace=wrap;html=1;rounded=1;" vertex="1" parent="1">
          <mxGeometry x="250" y="600" width="100" height="40" as="geometry" />
        </mxCell>
        <mxCell id="geJAM1FH9w8emXUavwDb-24" value="" style="endArrow=classic;html=1;rounded=0;entryX=1;entryY=0.5;entryDx=0;entryDy=0;" edge="1" parent="1" target="geJAM1FH9w8emXUavwDb-14">
          <mxGeometry width="50" height="50" relative="1" as="geometry">
            <mxPoint x="402.5" y="259.67" as="sourcePoint" />
            <mxPoint x="355.5" y="259.81" as="targetPoint" />
          </mxGeometry>
        </mxCell>
        <mxCell id="geJAM1FH9w8emXUavwDb-25" value="Filbert Pacudan &amp;amp; Rhea Paleyan" style="whiteSpace=wrap;html=1;rounded=1;" vertex="1" parent="1">
          <mxGeometry x="-120" y="-440" width="120" height="40" as="geometry" />
        </mxCell>
        <mxCell id="geJAM1FH9w8emXUavwDb-26" value="" style="edgeStyle=orthogonalEdgeStyle;rounded=0;orthogonalLoop=1;jettySize=auto;html=1;" edge="1" parent="1" source="iPQbSwLAwt5U1WuinnP0-29" target="geJAM1FH9w8emXUavwDb-25">
          <mxGeometry relative="1" as="geometry" />
        </mxCell>
        <mxCell id="iPQbSwLAwt5U1WuinnP0-29" value="&lt;font style=&quot;font-size: 10px;&quot;&gt;Rose (Salya) Biba &amp;amp; Gilbert Pacudan&lt;/font&gt;" style="rounded=1;whiteSpace=wrap;html=1;" parent="1" vertex="1">
          <mxGeometry x="55" y="-440" width="120" height="40" as="geometry" />
        </mxCell>
        <mxCell id="geJAM1FH9w8emXUavwDb-49" value="" style="edgeStyle=orthogonalEdgeStyle;rounded=0;orthogonalLoop=1;jettySize=auto;html=1;fontFamily=Helvetica;fontSize=12;fontColor=default;" edge="1" parent="1" source="iPQbSwLAwt5U1WuinnP0-30" target="geJAM1FH9w8emXUavwDb-48">
          <mxGeometry relative="1" as="geometry" />
        </mxCell>
        <mxCell id="iPQbSwLAwt5U1WuinnP0-30" value="&lt;font style=&quot;font-size: 10px;&quot;&gt;Claire (Ugamay) Biba&lt;/font&gt;" style="rounded=1;whiteSpace=wrap;html=1;" parent="1" vertex="1">
          <mxGeometry x="55" y="-360" width="120" height="40" as="geometry" />
        </mxCell>
        <mxCell id="iPQbSwLAwt5U1WuinnP0-31" value="&lt;span style=&quot;font-size: 10px;&quot;&gt;Jacob (Bantas) Biba &amp;amp; Anne Badongen&lt;/span&gt;" style="rounded=1;whiteSpace=wrap;html=1;" parent="1" vertex="1">
          <mxGeometry x="55" y="-230" width="120" height="40" as="geometry" />
        </mxCell>
        <mxCell id="geJAM1FH9w8emXUavwDb-27" value="" style="endArrow=none;html=1;rounded=0;fontFamily=Helvetica;fontSize=12;fontColor=default;" edge="1" parent="1">
          <mxGeometry width="50" height="50" relative="1" as="geometry">
            <mxPoint x="-140" y="-420" as="sourcePoint" />
            <mxPoint x="-120" y="-420" as="targetPoint" />
          </mxGeometry>
        </mxCell>
        <mxCell id="geJAM1FH9w8emXUavwDb-31" value="" style="endArrow=none;html=1;rounded=0;fontFamily=Helvetica;fontSize=12;fontColor=default;" edge="1" parent="1">
          <mxGeometry width="50" height="50" relative="1" as="geometry">
            <mxPoint x="-140" y="-420" as="sourcePoint" />
            <mxPoint x="-140" y="-440" as="targetPoint" />
          </mxGeometry>
        </mxCell>
        <mxCell id="geJAM1FH9w8emXUavwDb-32" value="" style="endArrow=classic;html=1;rounded=0;fontFamily=Helvetica;fontSize=12;fontColor=default;" edge="1" parent="1">
          <mxGeometry width="50" height="50" relative="1" as="geometry">
            <mxPoint x="-140" y="-440" as="sourcePoint" />
            <mxPoint x="-160" y="-440" as="targetPoint" />
          </mxGeometry>
        </mxCell>
        <mxCell id="geJAM1FH9w8emXUavwDb-33" value="" style="endArrow=none;html=1;rounded=0;fontFamily=Helvetica;fontSize=12;fontColor=default;" edge="1" parent="1">
          <mxGeometry width="50" height="50" relative="1" as="geometry">
            <mxPoint x="-140" y="-400" as="sourcePoint" />
            <mxPoint x="-140" y="-420" as="targetPoint" />
            <Array as="points">
              <mxPoint x="-140" y="-420" />
            </Array>
          </mxGeometry>
        </mxCell>
        <mxCell id="geJAM1FH9w8emXUavwDb-34" value="" style="endArrow=classic;html=1;rounded=0;fontFamily=Helvetica;fontSize=12;fontColor=default;" edge="1" parent="1">
          <mxGeometry width="50" height="50" relative="1" as="geometry">
            <mxPoint x="-140" y="-400" as="sourcePoint" />
            <mxPoint x="-160" y="-400" as="targetPoint" />
          </mxGeometry>
        </mxCell>
        <mxCell id="geJAM1FH9w8emXUavwDb-42" value="Filrae" style="rounded=1;whiteSpace=wrap;html=1;pointerEvents=0;align=center;verticalAlign=middle;fontFamily=Helvetica;fontSize=12;fontColor=default;fillColor=none;gradientColor=none;" vertex="1" parent="1">
          <mxGeometry x="-230" y="-450" width="70" height="20" as="geometry" />
        </mxCell>
        <mxCell id="geJAM1FH9w8emXUavwDb-47" value="Iver Blade" style="rounded=1;whiteSpace=wrap;html=1;pointerEvents=0;align=center;verticalAlign=middle;fontFamily=Helvetica;fontSize=12;fontColor=default;fillColor=none;gradientColor=none;" vertex="1" parent="1">
          <mxGeometry x="-230" y="-410" width="70" height="20" as="geometry" />
        </mxCell>
        <mxCell id="geJAM1FH9w8emXUavwDb-51" value="" style="edgeStyle=orthogonalEdgeStyle;rounded=0;orthogonalLoop=1;jettySize=auto;html=1;fontFamily=Helvetica;fontSize=12;fontColor=default;" edge="1" parent="1" source="geJAM1FH9w8emXUavwDb-48" target="geJAM1FH9w8emXUavwDb-50">
          <mxGeometry relative="1" as="geometry" />
        </mxCell>
        <mxCell id="geJAM1FH9w8emXUavwDb-48" value="May Joy Biba &amp;amp; Francis Deyan" style="rounded=1;whiteSpace=wrap;html=1;" vertex="1" parent="1">
          <mxGeometry x="-120" y="-360" width="120" height="40" as="geometry" />
        </mxCell>
        <mxCell id="geJAM1FH9w8emXUavwDb-50" value="Kyle" style="whiteSpace=wrap;html=1;rounded=1;" vertex="1" parent="1">
          <mxGeometry x="-230" y="-350" width="70" height="20" as="geometry" />
        </mxCell>
        <mxCell id="geJAM1FH9w8emXUavwDb-52" value="&lt;span style=&quot;font-size: 10px;&quot;&gt;Jason (Uyaan)&lt;/span&gt;" style="rounded=1;whiteSpace=wrap;html=1;" vertex="1" parent="1">
          <mxGeometry x="-120" y="-280" width="120" height="20" as="geometry" />
        </mxCell>
        <mxCell id="geJAM1FH9w8emXUavwDb-53" value="&lt;span style=&quot;font-size: 10px;&quot;&gt;Godfrey III (Domanog)&lt;/span&gt;" style="rounded=1;whiteSpace=wrap;html=1;" vertex="1" parent="1">
          <mxGeometry x="-120" y="-239.62" width="120" height="20" as="geometry" />
        </mxCell>
        <mxCell id="geJAM1FH9w8emXUavwDb-54" value="&lt;span style=&quot;font-size: 10px;&quot;&gt;Lumas-i John (Lumas-i)&lt;/span&gt;" style="rounded=1;whiteSpace=wrap;html=1;" vertex="1" parent="1">
          <mxGeometry x="-120" y="-200" width="120" height="20" as="geometry" />
        </mxCell>
        <mxCell id="geJAM1FH9w8emXUavwDb-55" value="&lt;span style=&quot;font-size: 10px;&quot;&gt;Jacob Jr. (Santiago)&lt;/span&gt;" style="rounded=1;whiteSpace=wrap;html=1;" vertex="1" parent="1">
          <mxGeometry x="-120" y="-160" width="120" height="20" as="geometry" />
        </mxCell>
        <mxCell id="geJAM1FH9w8emXUavwDb-57" value="&lt;span style=&quot;font-size: 10px;&quot;&gt;Abraham&lt;/span&gt;" style="rounded=1;whiteSpace=wrap;html=1;" vertex="1" parent="1">
          <mxGeometry x="-120" y="-100" width="120" height="20" as="geometry" />
        </mxCell>
        <mxCell id="geJAM1FH9w8emXUavwDb-58" value="&lt;span style=&quot;font-size: 10px;&quot;&gt;Katheryn Clyn&lt;/span&gt;" style="rounded=1;whiteSpace=wrap;html=1;" vertex="1" parent="1">
          <mxGeometry x="-120" y="-60" width="120" height="20" as="geometry" />
        </mxCell>
        <mxCell id="geJAM1FH9w8emXUavwDb-59" value="&lt;span style=&quot;font-size: 10px;&quot;&gt;Alexander&lt;/span&gt;" style="rounded=1;whiteSpace=wrap;html=1;" vertex="1" parent="1">
          <mxGeometry x="-120" y="-20" width="120" height="20" as="geometry" />
        </mxCell>
        <mxCell id="geJAM1FH9w8emXUavwDb-6" value="" style="endArrow=none;html=1;rounded=0;" edge="1" parent="1">
          <mxGeometry width="50" height="50" relative="1" as="geometry">
            <mxPoint x="210" y="-50.18000000000001" as="sourcePoint" />
            <mxPoint x="230" y="-50.18000000000001" as="targetPoint" />
          </mxGeometry>
        </mxCell>
        <mxCell id="geJAM1FH9w8emXUavwDb-7" value="" style="endArrow=none;html=1;rounded=0;" edge="1" parent="1">
          <mxGeometry width="50" height="50" relative="1" as="geometry">
            <mxPoint x="220" y="129.62" as="sourcePoint" />
            <mxPoint x="220" y="-50.379999999999995" as="targetPoint" />
          </mxGeometry>
        </mxCell>
        <mxCell id="geJAM1FH9w8emXUavwDb-8" value="" style="endArrow=classic;html=1;rounded=0;" edge="1" parent="1">
          <mxGeometry width="50" height="50" relative="1" as="geometry">
            <mxPoint x="210" y="-50.18000000000001" as="sourcePoint" />
            <mxPoint x="190" y="-50.18000000000001" as="targetPoint" />
          </mxGeometry>
        </mxCell>
        <mxCell id="geJAM1FH9w8emXUavwDb-5" value="&lt;span style=&quot;font-size: 10px;&quot;&gt;Godfrey Jr. (Marcelo) Biba&lt;/span&gt;" style="rounded=1;whiteSpace=wrap;html=1;" vertex="1" parent="1">
          <mxGeometry x="50" y="140.38" width="115" height="40" as="geometry" />
        </mxCell>
        <mxCell id="iPQbSwLAwt5U1WuinnP0-32" value="&lt;font style=&quot;font-size: 10px;&quot;&gt;Jenelyn (Conyap) Biba &amp;amp; Clint Kitongan&lt;/font&gt;" style="rounded=1;whiteSpace=wrap;html=1;" parent="1" vertex="1">
          <mxGeometry x="60" y="-70" width="130" height="40" as="geometry" />
        </mxCell>
        <mxCell id="iPQbSwLAwt5U1WuinnP0-33" value="&lt;font style=&quot;font-size: 10px;&quot;&gt;Emilia Biba &amp;amp; David Soliba&lt;/font&gt;" style="rounded=1;whiteSpace=wrap;html=1;" parent="1" vertex="1">
          <mxGeometry x="45" y="30" width="130" height="40" as="geometry" />
        </mxCell>
        <mxCell id="geJAM1FH9w8emXUavwDb-4" value="&lt;font style=&quot;font-size: 10px;&quot;&gt;Christina Biba &amp;amp; Christopher Banglo&lt;/font&gt;" style="rounded=1;whiteSpace=wrap;html=1;" vertex="1" parent="1">
          <mxGeometry x="55" y="90" width="115" height="40" as="geometry" />
        </mxCell>
      </root>
    </mxGraphModel>
  </diagram>
</mxfile>
